<svg width="51" height="51" viewBox="0 0 51 51" fill="none" xmlns="http://www.w3.org/2000/svg">
<mask id="mask0_58_331" style="mask-type:luminance" maskUnits="userSpaceOnUse" x="0" y="1" width="51" height="47">
<path d="M0 1.564H51V47.9667H0V1.564Z" fill="white"/>
</mask>
<g mask="url(#mask0_58_331)">
<mask id="mask1_58_331" style="mask-type:luminance" maskUnits="userSpaceOnUse" x="0" y="1" width="51" height="47">
<path d="M51 1.564H0V47.974H51V1.564Z" fill="white"/>
</mask>
<g mask="url(#mask1_58_331)">
<mask id="mask2_58_331" style="mask-type:luminance" maskUnits="userSpaceOnUse" x="0" y="1" width="51" height="47">
<path d="M0.10199 1.598H50.898V47.9667H0.10199V1.598Z" fill="white"/>
</mask>
<g mask="url(#mask2_58_331)">
<path d="M0.410934 26.273C0.429129 26.2548 6.07525 20.6076 6.83733 19.8452V8.2972C6.83733 7.72238 7.30324 7.25648 7.87792 7.25648H13.0314C13.6063 7.25648 14.0722 7.72238 14.0722 8.2972V12.6096L24.763 1.91768C25.1737 1.50702 25.8347 1.51579 26.2365 1.91927C26.9668 2.6528 49.2452 25.0273 50.5906 26.3786C50.996 26.7858 50.9947 27.4448 50.5874 27.8503C50.1803 28.2557 49.5213 28.2547 49.1157 27.8472L46.4542 25.1745V46.918C46.4542 47.4927 45.9883 47.9587 45.4135 47.9587H31.0562C30.4814 47.9587 30.0155 47.4927 30.0155 46.918V31.1475H20.9845V46.918C20.9845 47.4927 20.5186 47.9587 19.9438 47.9587H5.5865C5.01169 47.9587 4.54579 47.4927 4.54579 46.918V25.0811L1.8829 27.7445C1.47649 28.1509 0.817739 28.1511 0.4112 27.7448C0.00466064 27.3383 0.00466067 26.6794 0.410934 26.273ZM18.9031 45.8774V30.1069C18.9031 29.5322 19.369 29.0661 19.9438 29.0661H31.0562C31.631 29.0661 32.0969 29.5322 32.0969 30.1069V45.8774H44.3728V23.0831L25.4975 4.12688L6.62722 22.9991V45.8774H18.9031Z" fill="#F4D35E"/>
</g>
</g>
</g>
<mask id="mask3_58_331" style="mask-type:luminance" maskUnits="userSpaceOnUse" x="8" y="17" width="35" height="31">
<path d="M8.64514 17.7076H42.3561V47.9506H8.64514V17.7076Z" fill="white"/>
</mask>
<g mask="url(#mask3_58_331)">
<path d="M41.521 26.5424H41.5206C41.0978 26.1756 40.4589 25.641 40.0144 25.3141C39.0911 24.6343 37.7476 24.725 36.6527 24.873C36.3456 24.9143 36.0401 24.9795 35.742 25.0599C35.844 24.3694 36.1931 23.7434 36.2441 23.0394C36.4043 20.8273 35.1929 20.2054 33.6029 19.1666C32.4296 18.4004 31.8604 17.6376 30.289 17.7388C30.1361 17.7489 29.9762 17.8064 29.8276 17.8169C29.0517 17.8721 28.4071 17.5307 27.6134 17.8374C27.3624 17.9343 26.0247 18.9028 25.8401 19.1072C25.5563 19.4208 25.3272 19.9672 25.077 20.3483C25.0071 20.455 25.0535 20.5596 24.8966 20.3993C24.7359 20.2348 24.597 19.968 24.4351 19.7822C23.1944 18.3538 22.3242 18.521 20.5806 18.4746C20.109 18.4619 19.7776 18.3676 19.273 18.4348C17.9082 18.6171 15.9305 19.92 15.2542 21.1192C14.8426 21.8487 14.4371 23.2757 14.2402 24.1114C14.1467 24.5088 14.0748 24.9216 14.0524 25.3299C13.3639 25.122 12.6695 25.0499 11.974 25.2738C11.8287 25.3206 11.6762 25.4272 11.5491 25.4653C11.1112 25.5983 10.9173 25.5445 10.4805 25.8218C9.73516 26.2945 9.15357 26.8542 8.97786 27.7481C8.70759 29.1226 8.48778 30.3793 8.88051 31.7545C9.09022 32.4902 9.29953 33.2622 9.53554 33.989C9.90781 35.1359 10.8246 35.9219 11.4522 36.9264L13.0831 38.3776C13.1128 38.9199 12.9699 39.4393 13.0139 39.9881C13.0475 40.4036 13.2248 40.8195 13.2781 41.2262C13.3333 41.6472 13.2904 42.1136 13.3218 42.5308C13.421 43.8422 14.0173 45.3828 15.1195 46.1652C15.4045 46.3675 15.7559 46.5047 16.0537 46.695C16.8137 47.1816 17.2311 47.6393 18.2001 47.7845C18.8956 47.8891 20.3863 47.8258 21.0734 47.6624C21.8203 47.4853 22.4112 47.0337 23.1163 46.8163C23.81 46.6019 25.1728 46.2104 25.8517 46.3359C26.4468 46.4456 26.7588 46.8549 27.2671 47.1164C28.6226 47.815 31.7383 48.1934 33.2005 47.8088C34.3903 47.496 34.8715 46.9468 35.7428 46.1903C36.4438 45.5816 37.0512 45.1978 37.4972 44.3231C37.895 43.5422 38.1186 41.3541 37.863 40.5272C37.7367 40.1193 37.4494 39.7756 37.2779 39.3786C37.0152 38.7708 36.9836 38.1001 36.592 37.5612C36.9006 37.377 37.2061 37.1821 37.478 36.9453C38.131 36.3768 38.679 35.6149 39.3259 35.0564C40.3091 34.2076 41.0772 33.8584 41.7458 32.6223C42.4409 31.3363 42.1933 30.7276 42.2528 29.3922C42.3099 28.1078 42.6128 27.4902 41.5229 26.5424H41.521Z" fill="#F4D35E"/>
</g>
<path d="M16.9072 26.885C16.711 25.5724 16.3804 24.1744 17.1948 23.0216C17.7147 22.2855 18.694 21.1382 19.629 21.0257C20.4207 20.9307 20.898 21.1724 21.4873 21.6498C22.2574 22.2736 23.1665 23.0092 23.5581 23.9321C24.1578 25.3453 24.5541 27.3515 23.6527 28.709C23.3948 29.0983 23.109 29.2512 22.7962 29.5475C22.1011 30.2048 21.6835 30.8171 20.5821 30.7222C20.272 30.6956 20.2608 30.5863 20.0623 30.5102C19.461 30.2797 19.1359 30.3839 18.5956 29.8576C17.7483 29.0327 17.0859 28.0807 16.9072 26.8847V26.885ZM12.5119 34.6325C11.9163 33.9195 11.3896 32.2746 11.1649 31.3564C10.7408 29.6204 12.0924 27.6625 13.8887 27.4593C15.8486 27.238 17.3025 28.7653 17.7853 30.5145C18.1614 31.8762 18.4218 33.3313 17.5814 34.5807C16.4225 36.3031 13.7748 36.1447 12.5111 34.6321H12.5115L12.5119 34.6325ZM25.7242 29.0481C25.3608 28.1351 25.1094 27.2388 25.2739 26.2463C25.3523 25.7736 25.5697 25.3392 25.6837 24.8837C25.7458 24.6343 25.7567 24.3767 25.8211 24.135C26.0219 23.3789 26.8361 23.0104 27.3999 22.5546C28.2021 21.9058 28.7053 21.2096 29.8395 21.1034C31.4962 20.9473 32.7579 23.3378 32.8861 24.7374C32.9692 25.6434 32.5907 27.8297 32.1867 28.6511C31.7519 29.5355 31.1626 29.9375 30.2539 30.2623C28.1499 31.0145 26.7037 31.5042 25.725 29.0481H25.7242ZM33.881 39.3061C34.3019 40.5924 34.7081 41.3541 33.6982 42.53C32.7409 43.645 31.9948 44.1084 30.5335 44.4118C29.51 44.6243 29.3865 44.4049 28.5191 44.0898C28.2156 43.9794 27.8776 43.923 27.5636 43.8125C26.5213 43.446 25.1936 42.8242 24.0861 42.8954C23.4693 42.9351 22.6965 43.1185 22.1037 43.3017C20.1167 43.9145 19.3683 44.8421 17.2377 43.6213C16.5774 43.243 15.8393 42.8057 15.5535 42.0697C15.243 41.2714 15.1179 39.1562 15.3183 38.3266C15.523 37.4805 16.1942 36.7772 16.9408 36.3661C17.9993 35.7821 18.4473 35.7582 19.1539 34.6493C19.675 33.8315 20.5683 32.2477 21.3371 31.709C21.8175 31.3722 23.7428 30.6829 24.33 30.6179C24.9353 30.5515 25.228 30.7886 25.749 30.8732C26.3355 30.9682 26.9067 30.8465 27.4015 31.3011C27.5648 31.4513 27.6725 31.69 27.8235 31.8418C28.3658 32.3871 29.1116 32.7562 29.6159 33.4015C30.0464 33.9527 30.1168 34.3864 30.3806 34.9869C30.7203 35.7612 31.0128 35.7507 31.6326 36.2007C33.1047 37.2685 33.3195 37.5855 33.8829 39.3057H33.8818L33.881 39.3061ZM39.0173 30.7825C38.9296 32.0287 38.0051 32.8736 37.3505 33.8157C36.645 34.8317 36.4152 35.4831 35.048 35.7898C33.1422 36.2169 31 34.6084 31.1954 32.5922C31.2444 32.0843 32.2037 30.2947 32.5124 29.7869C33.0905 28.8353 34.812 27.7014 35.9251 27.5752C37.6336 27.3809 39.1324 29.1416 39.0173 30.7829V30.7825Z" fill="#0D3B66"/>
</svg>
